{"title":"Mere Yaar Kaminey 2014 Non Hindi Punjabi Movies DVDScr x264 +Sam","uid":9504209,"size":738454599,"categoryP":"video","categoryS":"movies","magnet":"?xt=urn:btih:fa3120172d9dd74df45ddda24d13d2c46a116778&amp;dn=Mere+Yaar+Kaminey+2014+Non+Hindi+Punjabi+Movies+DVDScr+x264+%2BSam&amp;tr=udp%3A%2F%2Ftracker.openbittorrent.com%3A80&amp;tr=udp%3A%2F%2Fopen.demonii.com%3A1337&amp;tr=udp%3A%2F%2Ftracker.coppersurfer.tk%3A6969&amp;tr=udp%3A%2F%2Fexodus.desync.com%3A6969","seeders":4,"leechers":1,"uploader":"basicssom","files":2,"time":1390283509,"description":" &lt;a href=&quot;http://s5.postimg.org/hgeuxszk7/logo.png&quot; rel=&quot;nofollow&quot; target=&quot;_NEW&quot;&gt;http://s5.postimg.org/hgeuxszk7/logo.png&lt;/a&gt;\n\nMere Yaar Kaminey 2014 Non Hindi Punjabi Movies DVDScr x264 +Sample â˜»rDXâ˜»\n\nPlease check SCREEN SHOTS first :\n &lt;a href=&quot;\nhttp://moviesreview.co.nr/2014/1/MereYaarKaminey/1.html&quot; rel=&quot;nofollow&quot; target=&quot;_NEW&quot;&gt;\nhttp://moviesreview.co.nr/2014/1/MereYaarKaminey/1.html&lt;/a&gt;\n &lt;a href=&quot;\nhttp://moviesreview.co.nr/2014/1/MereYaarKaminey/2.html&quot; rel=&quot;nofollow&quot; target=&quot;_NEW&quot;&gt;\nhttp://moviesreview.co.nr/2014/1/MereYaarKaminey/2.html&lt;/a&gt;\n &lt;a href=&quot;\nhttp://moviesreview.co.nr/2014/1/MereYaarKaminey/3.html&quot; rel=&quot;nofollow&quot; target=&quot;_NEW&quot;&gt;\nhttp://moviesreview.co.nr/2014/1/MereYaarKaminey/3.html&lt;/a&gt;\n &lt;a href=&quot;\nhttp://moviesreview.co.nr/2014/1/MereYaarKaminey/4.html&quot; rel=&quot;nofollow&quot; target=&quot;_NEW&quot;&gt;\nhttp://moviesreview.co.nr/2014/1/MereYaarKaminey/4.html&lt;/a&gt;\n &lt;a href=&quot;\nhttp://moviesreview.co.nr/2014/1/MereYaarKaminey/5.html&quot; rel=&quot;nofollow&quot; target=&quot;_NEW&quot;&gt;\nhttp://moviesreview.co.nr/2014/1/MereYaarKaminey/5.html&lt;/a&gt;\n &lt;a href=&quot;\nhttp://moviesreview.co.nr/2014/1/MereYaarKaminey/6.html&quot; rel=&quot;nofollow&quot; target=&quot;_NEW&quot;&gt;\nhttp://moviesreview.co.nr/2014/1/MereYaarKaminey/6.html&lt;/a&gt;\n\nAll rDX torrents are Seeding From the 1Gbps Seedbox 24X7\n &lt;a href=&quot;\nhttp://istoreimg.com/upload/big/2014/01/21/52ddf82572be6.jpg&quot; rel=&quot;nofollow&quot; target=&quot;_NEW&quot;&gt;\nhttp://istoreimg.com/upload/big/2014/01/21/52ddf82572be6.jpg&lt;/a&gt;\n &lt;a href=&quot;\nhttp://istoreimg.com/upload/big/2014/01/21/52ddf827eb49b.jpg&quot; rel=&quot;nofollow&quot; target=&quot;_NEW&quot;&gt;\nhttp://istoreimg.com/upload/big/2014/01/21/52ddf827eb49b.jpg&lt;/a&gt;\n &lt;a href=&quot;\nhttp://istoreimg.com/upload/big/2014/01/21/52ddf82a00729.jpg&quot; rel=&quot;nofollow&quot; target=&quot;_NEW&quot;&gt;\nhttp://istoreimg.com/upload/big/2014/01/21/52ddf82a00729.jpg&lt;/a&gt;\n &lt;a href=&quot;\nhttp://istoreimg.com/upload/big/2014/01/21/52ddf82c8fcce.jpg&quot; rel=&quot;nofollow&quot; target=&quot;_NEW&quot;&gt;\nhttp://istoreimg.com/upload/big/2014/01/21/52ddf82c8fcce.jpg&lt;/a&gt;\n &lt;a href=&quot;\nhttp://istoreimg.com/upload/big/2014/01/21/52ddf82e67b6a.jpg&quot; rel=&quot;nofollow&quot; target=&quot;_NEW&quot;&gt;\nhttp://istoreimg.com/upload/big/2014/01/21/52ddf82e67b6a.jpg&lt;/a&gt;\n\nFormat                                   : Matroska\nFormat version                           : Version 4 / Version 2\nFile size                                : 697 MiB\nDuration                                 : 1h 59mn\nOverall bit rate mode                    : Variable\nOverall bit rate                         : 818 Kbps\nMovie name                               : Mere Yaar Kaminey 2014 Punjabi Movies DVDScr ~ rDX ~\n\nVideo\nID                                       : 1\nFormat                                   : AVC\nFormat/Info                              : Advanced Video Codec\nFormat profile                           : &lt;a class=&quot;__cf_email__&quot; href=&quot;/cdn-cgi/l/email-protection&quot; data-cfemail=&quot;8dc5e4eae5cdc1b9a3bc&quot;&gt;[email&amp;#160;protected]&lt;/a&gt;&lt;script cf-hash='f9e31' type=&quot;text/javascript&quot;&gt;\n/* &lt;![CDATA[ */!function(){try{var t=&quot;currentScript&quot;in document?document.currentScript:function(){for(var t=document.getElementsByTagName(&quot;script&quot;),e=t.length;e--;)if(t[e].getAttribute(&quot;cf-hash&quot;))return t[e]}();if(t&amp;&amp;t.previousSibling){var e,r,n,i,c=t.previousSibling,a=c.getAttribute(&quot;data-cfemail&quot;);if(a){for(e=&quot;&quot;,r=parseInt(a.substr(0,2),16),n=2;a.length-n;n+=2)i=parseInt(a.substr(n,2),16)^r,e+=String.fromCharCode(i);e=document.createTextNode(e),c.parentNode.replaceChild(e,c)}}}catch(u){}}();/* ]]&gt; */&lt;/script&gt;\nFormat settings, CABAC                   : Yes\nFormat settings, ReFrames                : 3 frames\nCodec ID                                 : V_MPEG4/ISO/AVC\nDuration                                 : 1h 59mn\nBit rate mode                            : Variable\nBit rate                                 : 689 Kbps\nMaximum bit rate                         : 15.0 Mbps\nWidth                                    : 640 pixels\nHeight                                   : 272 pixels\nDisplay aspect ratio                     : 2.35:1\nFrame rate mode                          : Constant\nFrame rate                               : 23.976 fps\nColor space                              : YUV\nChroma subsampling                       : 4:2:0\nBit depth                                : 8 bits\nScan type                                : Progressive\nBits/(Pixel*Frame)                       : 0.165\nStream size                              : 602 MiB (86%)\nWriting library                          : x264\nLanguage                                 : English\nDefault                                  : Yes\nForced                                   : No\nColor primaries                          : BT.709\nTransfer characteristics                 : BT.709\nMatrix coefficients                      : BT.709\n\nAudio\nID                                       : 2\nFormat                                   : MPEG Audio\nFormat version                           : Version 1\nFormat profile                           : Layer 3\nMode                                     : Joint stereo\nMode extension                           : MS Stereo\nCodec ID                                 : A_MPEG/L3\nCodec ID/Hint                            : MP3\nDuration                                 : 1h 53mn\nBit rate mode                            : Variable\nBit rate                                 : 96.0 Kbps\nChannel(s)                               : 2 channels\nSampling rate                            : 32.0 KHz\nCompression mode                         : Lossy\nStream size                              : 78.0 MiB (11%)\nWriting library                          : LAME3.99r\nEncoding settings                        : -m j -V 4 -q 2 -lowpass 15.1 --abr 96\nDefault                                  : Yes\nForced                                   : No","torrent":{"xt":"urn:btih:fa3120172d9dd74df45ddda24d13d2c46a116778","amp;dn":"Mere+Yaar+Kaminey+2014+Non+Hindi+Punjabi+Movies+DVDScr+x264+%2BSam","amp;tr":["udp%3A%2F%2Ftracker.openbittorrent.com%3A80","udp%3A%2F%2Fopen.demonii.com%3A1337","udp%3A%2F%2Ftracker.coppersurfer.tk%3A6969","udp%3A%2F%2Fexodus.desync.com%3A6969"],"infoHash":"fa3120172d9dd74df45ddda24d13d2c46a116778","infoHashBuffer":{"type":"Buffer","data":[250,49,32,23,45,157,215,77,244,93,221,162,77,19,210,196,106,17,103,120]},"announce":[],"urlList":[]}}